# xmcd
#
# Track frame offsets: 
#        150
#        13667
#        25930
#        38295
#        50245
#        64527
#        77645
#        89377
#        101620
#        115955
#        128785
#        140185
#        153157
#        165300
#        177300
#        189085
#        201022
#        214322
#        226032
#        239097
#        252210
#        263805
#
# Disc length: 3668 seconds
#
# Revision: 0
# Processed by: cddbd v1.5.2PL0 Copyright (c) Steve Scherf et al.
# Submitted via: ExactAudioCopyFreeDBPlugin 1.0
#
DISCID=240e5216
DTITLE=Bill Gaither - Complete Recorded Works Vol. 3 (1938-1939)
DYEAR=1994
DGENRE=Blues
TTITLE0=Old Coals Will Kindle
TTITLE1=Babyfield Ways Girl
TTITLE2=It's Grieving Me
TTITLE3=Old Model "A" Blues
TTITLE4=You Done Lost Your Swing No. 2
TTITLE5=Champ Joe Louis
TTITLE6=So Much Trouble
TTITLE7=It's Coming Back Home to You
TTITLE8=Right Hand Friend
TTITLE9=If I Was the Devil
TTITLE10=New Pains in My Heart
TTITLE11=Boogie Woogie
TTITLE12=Set 'Em
TTITLE13=Sweet Mama
TTITLE14=Noah's Dove
TTITLE15=Old Fashioned Woman
TTITLE16=I Got Your Water On
TTITLE17=Too Late Too Late
TTITLE18=New Rocky Mountain Blues
TTITLE19=Big Time Town Woman
TTITLE20=When My Woman's Lovin' Someone Else
TTITLE21=Racket Blues
EXTD=
EXTT0=
EXTT1=
EXTT2=
EXTT3=
EXTT4=
EXTT5=
EXTT6=
EXTT7=
EXTT8=
EXTT9=
EXTT10=
EXTT11=
EXTT12=
EXTT13=
EXTT14=
EXTT15=
EXTT16=
EXTT17=
EXTT18=
EXTT19=
EXTT20=
EXTT21=
PLAYORDER=
